<svg width="224" height="31" viewBox="0 0 224 31" fill="none" xmlns="http://www.w3.org/2000/svg">
<path fill-rule="evenodd" clip-rule="evenodd" d="M139.827 14.8051C141.448 15.1226 142.665 15.6202 143.471 16.2979C144.586 17.2502 145.143 18.417 145.143 19.7897C145.143 20.8364 144.774 21.8402 144.037 22.8011C143.3 23.7534 142.297 24.4569 141.01 24.8945C139.724 25.332 137.769 25.5551 135.137 25.5551H124.094V24.9803H124.977C125.954 24.9803 126.657 24.6971 127.078 24.1395C127.343 23.7706 127.481 22.9984 127.481 21.8231V8.21616C127.481 6.9121 127.318 6.08847 126.983 5.7453C126.529 5.28201 125.869 5.05895 124.985 5.05895H124.102V4.48413H134.211C136.097 4.48413 137.607 4.61282 138.747 4.86162C140.47 5.23054 141.791 5.89115 142.7 6.84346C143.608 7.78719 144.063 8.88535 144.063 10.1122C144.063 11.1675 143.711 12.1198 143 12.952C142.279 13.7842 141.225 14.4019 139.827 14.8051ZM130.79 13.9643C131.219 14.0416 131.699 14.093 132.248 14.1274C132.796 14.1617 133.397 14.1788 134.057 14.1788C135.729 14.1788 136.998 14.0158 137.847 13.6898C138.687 13.3638 139.33 12.8662 139.784 12.1884C140.239 11.5192 140.462 10.7814 140.462 9.98351C140.462 8.74808 139.904 7.7014 138.79 6.8263C137.675 5.9512 136.046 5.52224 133.903 5.52224C132.754 5.52224 131.716 5.63377 130.799 5.86541V13.9643H130.79ZM130.79 24.0365C132.119 24.3197 133.44 24.4569 134.743 24.4569C136.826 24.4569 138.412 24.0365 139.501 23.1872C140.599 22.3464 141.139 21.2997 141.139 20.0557C141.139 19.2321 140.89 18.4514 140.393 17.6964C139.896 16.9414 139.09 16.3408 137.975 15.9119C136.861 15.4743 135.48 15.2598 133.834 15.2598C133.114 15.2598 132.505 15.2684 131.999 15.2941C131.493 15.3113 131.082 15.3542 130.773 15.4057V24.0365H130.79Z" fill="white"/>
<path d="M135.137 25.7009H124.025V24.9888H124.977C125.92 24.9888 126.615 24.7143 127.026 24.1824C127.284 23.8306 127.412 23.0671 127.412 21.9088V8.2848C127.412 6.99789 127.249 6.18285 126.932 5.86541C126.495 5.41928 125.852 5.2048 124.977 5.2048H124.025V4.48413H134.203C136.081 4.48413 137.615 4.61282 138.756 4.86162C140.488 5.23912 141.834 5.90831 142.743 6.8692C143.66 7.82151 144.123 8.93683 144.123 10.1894C144.123 11.2618 143.763 12.2313 143.043 13.0721C142.374 13.8614 141.388 14.4619 140.119 14.8652C141.619 15.1826 142.76 15.6716 143.523 16.3237C144.655 17.2846 145.221 18.4771 145.221 19.8755C145.221 20.9308 144.843 21.9603 144.097 22.9212C143.351 23.8907 142.322 24.6028 141.036 25.0403C139.742 25.4864 137.813 25.7009 135.137 25.7009ZM124.171 25.5551H135.137C137.761 25.5551 139.725 25.332 140.993 24.8945C142.254 24.4655 143.257 23.7706 143.986 22.8183C144.706 21.8745 145.075 20.8793 145.075 19.8498C145.075 18.4943 144.517 17.336 143.42 16.4095C142.631 15.7403 141.422 15.2427 139.81 14.9338L139.802 14.7965C141.174 14.4019 142.228 13.7842 142.931 12.9606C143.626 12.1455 143.977 11.2104 143.977 10.1723C143.977 8.96257 143.523 7.87299 142.631 6.95499C141.739 6.01984 140.428 5.35923 138.721 4.99031C137.59 4.74151 136.072 4.61282 134.194 4.61282H124.154V5.05037H124.96C125.869 5.05037 126.546 5.28201 127.009 5.75388C127.361 6.10563 127.532 6.92925 127.532 8.27622V21.8917C127.532 23.1014 127.395 23.8735 127.121 24.251C126.683 24.8258 125.955 25.1175 124.96 25.1175H124.154V25.5551H124.171ZM134.743 24.5942C133.44 24.5942 132.102 24.4483 130.773 24.1738L130.722 24.1566V15.4057L130.782 15.3971C131.082 15.3456 131.485 15.3027 132.016 15.2856C132.539 15.2598 133.157 15.2513 133.851 15.2513C135.498 15.2513 136.904 15.4743 138.018 15.9119C139.142 16.3494 139.965 16.9585 140.47 17.7221C140.976 18.5028 141.225 19.2921 141.225 20.1243C141.225 21.3855 140.668 22.4579 139.553 23.3073C138.447 24.1652 136.826 24.5942 134.743 24.5942ZM130.859 24.0451C132.162 24.3197 133.465 24.4569 134.743 24.4569C136.801 24.4569 138.387 24.0365 139.459 23.2043C140.53 22.3807 141.071 21.3512 141.071 20.1329C141.071 19.3265 140.831 18.5715 140.342 17.8079C139.853 17.0615 139.056 16.4695 137.958 16.0491C136.861 15.6202 135.48 15.3971 133.843 15.3971C133.148 15.3971 132.531 15.4057 132.016 15.4314C131.528 15.4572 131.142 15.4829 130.859 15.5344V24.0451ZM134.057 14.3247C133.38 14.3247 132.788 14.3075 132.248 14.2732C131.725 14.2389 131.236 14.1874 130.79 14.1102L130.73 14.1016V5.89115L130.782 5.87399C131.691 5.64235 132.737 5.53082 133.903 5.53082C136.055 5.53082 137.71 5.97694 138.833 6.85204C139.965 7.73572 140.53 8.81672 140.53 10.0607C140.53 10.8758 140.299 11.6308 139.845 12.3085C139.39 12.9949 138.73 13.5096 137.873 13.8357C137.015 14.1531 135.729 14.3247 134.057 14.3247ZM130.859 13.9729C131.288 14.0416 131.751 14.093 132.248 14.1188C132.788 14.1531 133.38 14.1702 134.048 14.1702C135.703 14.1702 136.972 14.0072 137.813 13.6898C138.636 13.3724 139.279 12.8748 139.716 12.2142C140.153 11.5621 140.376 10.8329 140.376 10.0521C140.376 8.85103 139.819 7.80435 138.73 6.95499C137.632 6.09705 136.012 5.65951 133.894 5.65951C132.762 5.65951 131.742 5.77104 130.859 5.98552V13.9729Z" fill="#9E1E28"/>
<path fill-rule="evenodd" clip-rule="evenodd" d="M163.252 19.0004H154.189L152.603 22.3207C152.208 23.1443 152.011 23.7534 152.011 24.1566C152.011 24.4741 152.183 24.7572 152.517 24.9974C152.86 25.2376 153.597 25.4007 154.721 25.4693V26.0527H147.355V25.4693C148.333 25.3149 148.967 25.1175 149.25 24.8602C149.833 24.3711 150.485 23.3588 151.197 21.8316L159.428 4.48413H160.037L168.182 22.0204C168.834 23.4274 169.434 24.3454 169.965 24.7658C170.497 25.1862 171.243 25.4178 172.195 25.4693V26.0527H162.96V25.4693C163.895 25.4264 164.521 25.2891 164.855 25.0489C165.181 24.8173 165.344 24.517 165.344 24.1824C165.344 23.7277 165.112 23.007 164.658 22.0204L163.252 19.0004ZM162.763 17.8508L158.802 9.33148L154.729 17.8508H162.763Z" fill="white"/>
<path d="M172.272 26.19H162.9V25.4693H162.969C163.887 25.4264 164.504 25.2891 164.821 25.0661C165.13 24.843 165.284 24.5684 165.284 24.251C165.284 23.8049 165.053 23.0928 164.598 22.1233L163.201 19.1291H154.232L152.672 22.415C152.286 23.2215 152.089 23.8306 152.089 24.2167C152.089 24.5084 152.251 24.7744 152.569 25.006C152.903 25.2462 153.632 25.4006 154.729 25.4693H154.798V26.19H147.287V25.4779L147.347 25.4693C148.307 25.3149 148.933 25.1175 149.208 24.8773C149.782 24.3883 150.434 23.3759 151.137 21.8745L159.394 4.48413H160.088L160.105 4.52703L168.251 22.0633C168.894 23.4445 169.485 24.3625 170.017 24.7829C170.54 25.1862 171.277 25.4178 172.212 25.4693H172.281V26.19H172.272ZM163.038 26.0527H172.126V25.6066C171.2 25.5551 170.454 25.3149 169.923 24.8945C169.374 24.4655 168.765 23.5303 168.114 22.1233L159.985 4.62998H159.471L151.257 21.9346C150.545 23.4617 149.885 24.4912 149.285 24.9888C148.993 25.2462 148.376 25.4435 147.407 25.598V26.0441H154.635V25.598C153.546 25.5293 152.817 25.3663 152.466 25.1175C152.106 24.8601 151.926 24.5513 151.926 24.2167C151.926 23.7963 152.123 23.1957 152.517 22.3464L154.121 18.9833H163.269L163.286 19.0262L164.701 22.0633C165.164 23.0499 165.396 23.7877 165.396 24.251C165.396 24.6199 165.224 24.9288 164.881 25.1776C164.547 25.4178 163.938 25.5551 163.021 25.6066V26.0527H163.038ZM162.875 17.9795H154.609L154.661 17.8765L158.802 9.22853L158.871 9.3658L162.875 17.9795ZM154.832 17.8422H162.652L158.794 9.56312L154.832 17.8422Z" fill="#9E1E28"/>
<path fill-rule="evenodd" clip-rule="evenodd" d="M172.135 4.48413H178.488L192.798 20.2959V8.13895C192.798 6.84346 192.635 6.037 192.31 5.71098C191.889 5.27343 191.212 5.05895 190.295 5.05895H189.48V4.48413H197.625V5.05895H196.802C195.816 5.05895 195.113 5.32491 194.693 5.86541C194.444 6.19143 194.316 6.95499 194.316 8.13895V25.8983H193.699L178.274 8.92825V21.9088C178.274 23.2043 178.428 24.0108 178.745 24.3368C179.183 24.7658 179.851 24.9888 180.76 24.9888H181.592V25.5637H173.447V24.9888H174.261C175.264 24.9888 175.967 24.7143 176.379 24.1824C176.628 23.8478 176.765 23.0928 176.765 21.9088V7.24669C176.087 6.52602 175.573 6.06274 175.213 5.83109C174.87 5.59945 174.347 5.39355 173.67 5.19622C173.335 5.11043 172.829 5.05895 172.143 5.05895V4.48413H172.135Z" fill="white"/>
<path d="M194.377 26.0355H193.656L193.639 26.0098L178.334 9.17705V21.9689C178.334 23.2387 178.489 24.0365 178.789 24.3454C179.209 24.7658 179.869 24.9803 180.752 24.9803H181.653V25.6924H173.37V24.9803H174.253C175.222 24.9803 175.917 24.7143 176.32 24.1995C176.56 23.8735 176.688 23.1271 176.688 21.9689V7.34964C176.019 6.65471 175.514 6.18285 175.171 5.96836C174.836 5.7453 174.322 5.53082 173.653 5.34207C173.319 5.2477 172.813 5.2048 172.153 5.2048H172.084V4.48413H178.532L178.549 4.50987L192.739 20.1844V8.20758C192.739 6.93783 192.585 6.13995 192.276 5.83109C191.864 5.4107 191.204 5.2048 190.312 5.2048H189.429V4.48413H197.72V5.2048H196.82C195.86 5.2048 195.165 5.47076 194.771 5.98552C194.531 6.30296 194.411 7.04937 194.411 8.21616V26.0355H194.377ZM193.716 25.8983H194.239V8.20758C194.239 6.99789 194.368 6.2429 194.634 5.89115C195.062 5.34207 195.791 5.05895 196.794 5.05895H197.549V4.6214H189.541V5.05895H190.287C191.221 5.05895 191.916 5.28201 192.353 5.72814C192.696 6.07132 192.859 6.87778 192.859 8.20758V20.5447L192.739 20.4075L178.455 4.6214H172.204V5.05895C172.839 5.05895 173.336 5.11043 173.679 5.19622C174.365 5.39355 174.888 5.60803 175.239 5.83967C175.599 6.07132 176.114 6.54318 176.8 7.26385L176.817 7.28101V21.9689C176.817 23.1529 176.688 23.9336 176.422 24.2853C175.994 24.843 175.265 25.1175 174.245 25.1175H173.499V25.5551H181.498V25.1175H180.744C179.818 25.1175 179.123 24.8945 178.677 24.4483C178.352 24.1052 178.189 23.2987 178.189 21.9689V8.81672L178.309 8.95399L193.716 25.8983Z" fill="#9E1E28"/>
<path fill-rule="evenodd" clip-rule="evenodd" d="M208.686 13.8614L217.312 21.5828C218.726 22.8612 219.935 23.7277 220.93 24.191C221.933 24.6542 222.928 24.9116 223.931 24.9803V25.5551H212.802V24.9803C213.462 24.9803 213.951 24.8773 214.242 24.6714C214.534 24.4741 214.679 24.2424 214.679 23.9936C214.679 23.7448 214.619 23.5218 214.516 23.3244C214.405 23.1271 214.045 22.7582 213.436 22.2263L205.359 15.0282V21.8231C205.359 22.8869 205.436 23.599 205.582 23.9336C205.702 24.191 205.942 24.414 206.311 24.6028C206.8 24.8516 207.331 24.9717 207.88 24.9717H208.677V25.5465H198.697V24.9717H199.52C200.489 24.9717 201.192 24.7143 201.63 24.2081C201.904 23.8821 202.041 23.0756 202.041 21.8145V8.20758C202.041 7.13516 201.964 6.43165 201.818 6.07989C201.698 5.83109 201.467 5.61661 201.107 5.42786C200.601 5.17906 200.078 5.05895 199.52 5.05895H198.697V4.48413H208.677V5.05895H207.88C207.34 5.05895 206.817 5.17906 206.311 5.4107C205.951 5.57371 205.702 5.82251 205.565 6.15711C205.428 6.48313 205.359 7.16948 205.359 8.20758V14.6593C205.591 14.4619 206.38 13.8013 207.726 12.686C211.138 9.87198 213.205 7.98452 213.925 7.04936C214.233 6.63755 214.388 6.27722 214.388 5.95978C214.388 5.71956 214.268 5.51366 214.019 5.33349C213.779 5.15332 213.376 5.05895 212.793 5.05895H212.253V4.48413H220.844V5.05895C220.338 5.06753 219.875 5.13616 219.464 5.23912C219.052 5.35065 218.538 5.57371 217.946 5.89973C217.346 6.22574 216.608 6.75767 215.734 7.47833C215.477 7.68424 214.311 8.74808 212.227 10.6613L208.686 13.8614Z" fill="white"/>
<path d="M224 25.7009H212.733V24.9888H212.802C213.454 24.9888 213.925 24.8859 214.199 24.6971C214.474 24.517 214.611 24.3025 214.611 24.0794C214.611 23.8478 214.56 23.6419 214.457 23.4446C214.354 23.2644 214.011 22.9041 213.393 22.3636L205.428 15.2684V21.9003C205.428 22.947 205.505 23.6505 205.651 23.9851C205.763 24.2253 205.994 24.4398 206.346 24.6199C206.834 24.8602 207.349 24.9803 207.88 24.9803H208.746V25.6924H198.629V24.9803H199.529C200.472 24.9803 201.158 24.7315 201.578 24.2424C201.844 23.925 201.973 23.1357 201.973 21.8917V8.2848C201.973 7.22953 201.904 6.51744 201.758 6.18285C201.647 5.9512 201.424 5.7453 201.081 5.56513C200.584 5.32491 200.078 5.2048 199.529 5.2048H198.629V4.48413H208.746V5.2048H207.88C207.349 5.2048 206.843 5.31633 206.337 5.55655C205.994 5.71956 205.763 5.9512 205.634 6.26864C205.497 6.59466 205.428 7.28959 205.428 8.29338V14.5906C205.728 14.3333 206.397 13.7842 207.409 12.9348L207.675 12.7118C211.07 9.91488 213.153 8.01883 213.856 7.08368C214.157 6.68045 214.311 6.3287 214.311 6.037C214.311 5.82251 214.199 5.63377 213.977 5.47076C213.754 5.29917 213.359 5.21338 212.793 5.21338H212.185V4.49271H220.922V5.21338H220.853C220.356 5.22196 219.901 5.28201 219.49 5.39355C219.087 5.50508 218.581 5.72814 217.989 6.04558C217.398 6.3716 216.677 6.87778 215.794 7.6156C215.546 7.81293 214.405 8.85961 212.296 10.7986L208.789 13.9472L217.355 21.6171C218.761 22.8869 219.97 23.762 220.956 24.2081C221.95 24.6628 222.954 24.9288 223.931 24.9888H224V25.7009ZM212.87 25.5551H223.862V25.1175C222.885 25.0489 221.89 24.7829 220.896 24.3282C219.901 23.8649 218.675 22.9899 217.26 21.7115L208.575 13.9386L208.635 13.8871L212.202 10.687C214.345 8.71377 215.46 7.7014 215.708 7.49549C216.6 6.75767 217.329 6.23432 217.929 5.90831C218.529 5.58229 219.044 5.35923 219.455 5.23912C219.858 5.12758 220.304 5.06753 220.784 5.05037V4.61282H212.33V5.05037H212.802C213.402 5.05037 213.814 5.14474 214.071 5.34207C214.337 5.53082 214.465 5.76246 214.465 6.02842C214.465 6.35444 214.311 6.72335 213.985 7.1609C213.265 8.10463 211.181 10.0093 207.777 12.8147L207.512 13.0378C206.337 14.0158 205.634 14.6078 205.411 14.788L205.291 14.8823V8.27622C205.291 7.24669 205.36 6.54318 205.505 6.20001C205.651 5.84825 205.908 5.59087 206.286 5.4107C206.809 5.17048 207.332 5.05037 207.889 5.05037H208.618V4.61282H198.783V5.05037H199.538C200.112 5.05037 200.644 5.17906 201.158 5.42786C201.536 5.62519 201.776 5.84825 201.904 6.11421C202.059 6.47455 202.127 7.18664 202.127 8.27622V21.8917C202.127 23.17 201.981 23.9851 201.698 24.3282C201.244 24.8516 200.524 25.1175 199.538 25.1175H198.783V25.5551H208.618V25.1175H207.889C207.332 25.1175 206.791 24.9888 206.286 24.74C205.908 24.5427 205.651 24.3111 205.522 24.0365C205.368 23.6848 205.291 22.9641 205.291 21.8917V14.9424L205.411 15.0453L213.488 22.2434C214.122 22.8097 214.465 23.1614 214.577 23.3588C214.688 23.5732 214.748 23.8049 214.748 24.0623C214.748 24.3368 214.585 24.5856 214.277 24.8001C213.985 25.006 213.514 25.109 212.87 25.1175V25.5551Z" fill="#9E1E28"/>
<path fill-rule="evenodd" clip-rule="evenodd" d="M59.2742 25.8039H49.7741V24.7572C50.6144 24.7057 51.3003 24.6113 51.8576 24.4655C52.4064 24.3197 52.6893 24.1309 52.6893 23.9164C52.6893 23.8306 52.6722 23.7191 52.655 23.5904C52.6293 23.4617 52.595 23.3502 52.5607 23.2472L50.6658 18.5372H42.6748C42.3747 19.2321 42.1346 19.8326 41.946 20.3388C41.7574 20.8536 41.5945 21.3254 41.4401 21.763C41.303 22.1834 41.2086 22.5351 41.1486 22.7925C41.0972 23.0671 41.0715 23.2815 41.0715 23.4446C41.0715 23.8392 41.4058 24.1481 42.0832 24.3625C42.7605 24.5856 43.5151 24.7143 44.3639 24.7486V25.7953H35.7812V24.7486C36.0556 24.7315 36.4072 24.6714 36.8273 24.577C37.2474 24.4827 37.5904 24.354 37.8562 24.1995C38.2849 23.9336 38.6193 23.6505 38.8508 23.3588C39.0908 23.0671 39.3138 22.6638 39.5453 22.1491C40.6942 19.5152 41.9546 16.5467 43.335 13.2608C44.7154 9.97493 45.9501 7.04936 47.0304 4.48413H48.3165L55.9218 22.6124C56.0761 22.9984 56.2647 23.3073 56.4705 23.5475C56.6763 23.7877 56.9506 24.0194 57.3193 24.2424C57.568 24.3797 57.8852 24.4998 58.2882 24.5942C58.6826 24.68 59.0084 24.74 59.2828 24.7486V25.8039H59.2742ZM50.0828 17.2245L46.6275 9.08268L43.2407 17.2245H50.0828Z" fill="white"/>
<path d="M59.343 25.9154H49.7058V24.7315H49.7744C50.6061 24.68 51.3006 24.5856 51.8407 24.4398C52.3466 24.3025 52.6124 24.1395 52.6124 23.9593C52.6124 23.8821 52.6038 23.7877 52.5867 23.6762V23.6505C52.5609 23.5218 52.5352 23.4188 52.4923 23.3244L50.6146 18.6573H42.7265C42.4435 19.3179 42.2035 19.9099 42.0148 20.416C41.8348 20.9051 41.6804 21.3598 41.5347 21.7716L41.509 21.8402C41.3632 22.2692 41.2775 22.6038 41.226 22.8612C41.1746 23.1443 41.1489 23.3502 41.1489 23.5046C41.1489 23.8649 41.4747 24.1481 42.1091 24.354C42.7779 24.5685 43.541 24.6971 44.3727 24.74H44.4413V25.9326H35.7129V24.7486H35.7815C36.0816 24.7229 36.4331 24.6714 36.8104 24.577C37.2134 24.4827 37.5563 24.3625 37.8221 24.2081C38.2508 23.9422 38.5681 23.6762 38.7996 23.3845C39.0311 23.1014 39.254 22.6981 39.4855 22.192C40.5401 19.764 41.7833 16.8556 43.2752 13.3123L46.9878 4.48413H48.3682L48.3854 4.52703L55.982 22.6295C56.1363 22.9984 56.3164 23.3073 56.5136 23.5389C56.7194 23.7792 57.0023 24.0022 57.3453 24.2167C57.5939 24.354 57.9112 24.4741 58.2884 24.5599C58.6914 24.6542 59.0086 24.6971 59.2659 24.7057H59.3345V25.9154H59.343ZM49.843 25.7696H59.1973V24.8602C58.9401 24.843 58.6314 24.7915 58.2541 24.7057C57.8597 24.6114 57.5253 24.4912 57.2681 24.3454C56.8994 24.1223 56.6079 23.8821 56.4021 23.6333C56.1878 23.3931 55.9991 23.0671 55.8448 22.681L48.2568 4.60424H47.065L43.3867 13.338C41.8948 16.8813 40.6516 19.7897 39.5969 22.2263C39.3654 22.7582 39.1339 23.1529 38.8939 23.4531C38.6538 23.7534 38.3194 24.028 37.8821 24.3111C37.5992 24.4741 37.2476 24.6028 36.8275 24.6971C36.4674 24.7829 36.133 24.8344 35.8415 24.8602V25.7781H44.2784V24.8602C43.4553 24.8173 42.7093 24.6886 42.0491 24.4741C41.3461 24.251 40.9859 23.9164 40.9859 23.4875C40.9859 23.3244 41.0117 23.11 41.0631 22.8183C41.1146 22.5523 41.2089 22.2177 41.3546 21.7802L41.3804 21.7115C41.5261 21.2911 41.689 20.8364 41.8691 20.356C42.0577 19.8326 42.3064 19.2235 42.5979 18.5457L42.615 18.5028H50.7089L50.7261 18.5457L52.621 23.2558C52.6638 23.3502 52.6981 23.4703 52.7238 23.6076L52.7324 23.6419C52.7496 23.762 52.7581 23.8564 52.7581 23.9422C52.7581 24.1995 52.4752 24.3969 51.875 24.5599C51.3263 24.7057 50.6661 24.8001 49.843 24.8516V25.7696ZM50.1859 17.3275H43.1295L46.6191 8.92825L46.6877 9.08268L50.1859 17.3275ZM43.3438 17.1902H49.9801L46.6277 9.29716L43.3438 17.1902Z" fill="#9E1E28"/>
<path fill-rule="evenodd" clip-rule="evenodd" d="M82.1072 17.5591C81.8499 17.5934 81.507 17.6363 81.0697 17.705C80.6324 17.765 80.2809 17.8594 80.0151 17.9795C79.6979 18.1253 79.4664 18.3398 79.3377 18.6058C79.2091 18.8803 79.1405 19.1978 79.1405 19.5667V21.1968C79.1405 22.3807 79.1405 23.1786 79.1577 23.5904C79.1748 24.0108 79.192 24.3454 79.2091 24.6113C77.7858 25.2033 76.3625 25.658 74.9478 25.9755C73.5331 26.2843 72.1441 26.4473 70.7808 26.4473C69.3232 26.4473 67.9171 26.1985 66.571 25.6924C65.2163 25.1862 64.0416 24.4741 63.0299 23.5475C62.0095 22.6124 61.2036 21.4713 60.6034 20.1329C60.0032 18.786 59.7031 17.2846 59.7031 15.6287C59.7031 14.033 59.9861 12.5487 60.5605 11.176C61.135 9.81193 61.9495 8.62797 62.9956 7.6156C64.0073 6.62898 65.2248 5.85683 66.631 5.30775C68.0371 4.75867 69.5462 4.48413 71.1581 4.48413C72.4442 4.48413 73.5674 4.62998 74.5191 4.9131C75.4708 5.19622 76.3111 5.53939 77.0399 5.9512L77.7001 4.94742H78.9862L79.132 12.2914H77.8201C77.5972 11.4849 77.3143 10.687 76.9799 9.89772C76.6541 9.10841 76.2168 8.41349 75.6938 7.78719C75.1707 7.1609 74.5277 6.66329 73.7732 6.30296C73.0187 5.93405 72.1184 5.7453 71.0723 5.7453C69.9234 5.7453 68.9031 5.95978 68.0028 6.38875C67.1025 6.80914 66.3223 7.4526 65.6535 8.30195C64.9933 9.11699 64.496 10.1379 64.1445 11.3648C63.793 12.5916 63.6129 13.9558 63.6129 15.4657C63.6129 16.8041 63.7844 18.0567 64.1273 19.2321C64.4789 20.4075 64.9847 21.4284 65.6535 22.2949C66.3137 23.1786 67.1454 23.8649 68.14 24.3711C69.1346 24.8687 70.2664 25.1261 71.5353 25.1261C72.4785 25.1261 73.3359 24.9974 74.1161 24.7315C74.8878 24.4569 75.4451 24.1824 75.7624 23.8821C75.8481 23.3673 75.8995 22.8526 75.8995 22.3292C75.8995 21.8059 75.9081 21.3598 75.9081 20.9994V19.8412C75.9081 19.4208 75.8481 19.0605 75.7281 18.7431C75.608 18.417 75.3508 18.1854 74.965 18.0395C74.6134 17.8937 74.1333 17.7822 73.5245 17.7135C72.9243 17.6363 72.4442 17.5934 72.1012 17.5677V16.4781H82.0986V17.5591H82.1072Z" fill="white"/>
<path d="M70.7901 26.576C69.3239 26.576 67.892 26.3187 66.5545 25.8211C65.1998 25.3149 63.9994 24.5856 62.9962 23.659C61.9759 22.7239 61.1528 21.5657 60.5526 20.2187C59.9524 18.8803 59.6523 17.3532 59.6523 15.6888C59.6523 14.093 59.9439 12.5831 60.5098 11.2104C61.0842 9.84624 61.9073 8.64513 62.9619 7.63276C63.9737 6.64613 65.2083 5.86541 66.6231 5.30775C68.0292 4.75867 69.564 4.48413 71.1759 4.48413C72.4534 4.48413 73.5938 4.62998 74.5541 4.92168C75.4887 5.2048 76.3203 5.53939 77.032 5.93405L77.6751 4.94742H79.0641V5.01605L79.2098 12.4372H77.7694L77.7522 12.3857C77.5379 11.5964 77.2635 10.8243 76.9205 10.0093C76.5947 9.23711 76.166 8.5336 75.643 7.91588C75.1285 7.29817 74.4855 6.80914 73.7481 6.44881C73.0108 6.0799 72.1105 5.89973 71.073 5.89973C69.9412 5.89973 68.9209 6.11421 68.0292 6.5346C67.1461 6.95499 66.3658 7.58987 65.7056 8.43065C65.0626 9.23711 64.5567 10.2581 64.2052 11.4677C63.8536 12.6774 63.6736 14.0501 63.6736 15.5515C63.6736 16.8899 63.8451 18.1511 64.188 19.3007C64.5396 20.4675 65.0454 21.4885 65.6971 22.3378C66.3487 23.1958 67.1718 23.8907 68.1578 24.3883C69.1438 24.8859 70.2756 25.1347 71.5189 25.1347C72.4534 25.1347 73.3194 25.006 74.0825 24.74C74.8542 24.4655 75.3772 24.1995 75.6859 23.925C75.7716 23.4102 75.8145 22.9041 75.8231 22.4065C75.8231 21.8831 75.8316 21.437 75.8316 21.0767V19.9184C75.8316 19.498 75.7716 19.1463 75.6516 18.8374C75.5401 18.5372 75.3 18.3141 74.9313 18.1682C74.5798 18.0224 74.0997 17.9109 73.5081 17.8422C72.805 17.7564 72.3506 17.7135 72.0933 17.6964H72.0247V16.4867H82.1764V17.6964L82.0736 17.7135C81.8249 17.7479 81.4905 17.7907 81.079 17.8508C80.6674 17.9109 80.3159 17.9967 80.0415 18.1168C79.7414 18.2626 79.5185 18.4599 79.3984 18.7087C79.2698 18.9661 79.2098 19.2836 79.2098 19.6353V21.2654C79.2098 22.4322 79.2098 23.2387 79.227 23.659C79.2441 24.0194 79.2613 24.3626 79.2784 24.68V24.7315L79.2355 24.7486C77.8294 25.3406 76.3975 25.7953 74.9656 26.1127C73.5338 26.413 72.1362 26.576 70.7901 26.576ZM71.1759 4.61282C69.5811 4.61282 68.0721 4.88736 66.6745 5.42786C65.2769 5.97694 64.0594 6.74051 63.0563 7.71856C62.0188 8.71377 61.2043 9.9063 60.6384 11.2533C60.0725 12.6088 59.7895 14.093 59.7895 15.6802C59.7895 17.3275 60.0896 18.8374 60.6812 20.1501C61.2728 21.4799 62.0874 22.6209 63.0906 23.5475C64.0851 24.4655 65.2684 25.1776 66.6059 25.6838C67.9263 26.1814 69.3411 26.4302 70.7901 26.4302C72.1191 26.4302 73.5166 26.2758 74.9399 25.9583C76.3461 25.6409 77.7608 25.1948 79.1326 24.6199C79.1069 24.3197 79.0898 23.9936 79.0812 23.6505C79.0641 23.2301 79.0641 22.4236 79.0641 21.2568V19.6267C79.0641 19.2492 79.1326 18.9146 79.2698 18.6315C79.407 18.3484 79.6471 18.1253 79.9815 17.9709C80.273 17.8508 80.6331 17.7564 81.0532 17.6964C81.4476 17.6363 81.782 17.5934 82.0307 17.5591V16.6154H72.1705V17.5591C72.5392 17.5848 73.0022 17.6363 73.5338 17.6964C74.134 17.7736 74.6313 17.8851 74.9914 18.031C75.3943 18.1854 75.6687 18.4342 75.7973 18.7774C75.9259 19.1034 75.986 19.4723 75.986 19.9099V21.0681C75.986 21.437 75.986 21.8745 75.9774 22.3979C75.9774 22.9126 75.9259 23.436 75.8402 23.9593L75.8316 23.9851L75.8145 24.0022C75.4972 24.3025 74.9485 24.5856 74.1425 24.8687C73.3623 25.1347 72.4877 25.272 71.536 25.272C70.2671 25.272 69.1181 25.0146 68.115 24.5084C67.1118 23.9936 66.263 23.2901 65.6028 22.415C64.9426 21.5571 64.4281 20.519 64.068 19.335C63.725 18.1682 63.545 16.8985 63.545 15.543C63.545 14.033 63.725 12.6431 64.0766 11.4248C64.4281 10.1894 64.9425 9.15131 65.5942 8.33627C66.263 7.47833 67.0603 6.8263 67.9692 6.39733C68.878 5.96836 69.9155 5.7453 71.073 5.7453C72.1276 5.7453 73.0536 5.93405 73.8081 6.31154C74.5712 6.68045 75.2229 7.18664 75.7545 7.81293C76.286 8.4478 76.7233 9.15989 77.0491 9.94062C77.3835 10.7471 77.6579 11.5106 77.8723 12.2828H79.0641L78.9269 5.07611H77.7522L77.0749 6.10563L77.0148 6.07132C76.2946 5.66809 75.4544 5.32491 74.5026 5.04179C73.5681 4.75867 72.4449 4.61282 71.1759 4.61282Z" fill="#9E1E28"/>
<path fill-rule="evenodd" clip-rule="evenodd" d="M107.761 25.4864H101.622C100.267 23.5218 99.0327 21.8231 97.9352 20.3989C96.8377 18.9661 95.6373 17.4905 94.3598 15.9719H92.0277V22.6381C92.0277 22.9813 92.0791 23.2901 92.1992 23.5475C92.3192 23.8135 92.5678 24.0108 92.9537 24.1481C93.1509 24.2167 93.4853 24.2768 93.9654 24.3368C94.4456 24.3969 94.8485 24.4312 95.1829 24.4398V25.4864H85.5457V24.4398C85.8029 24.4226 86.1716 24.3883 86.6689 24.3368C87.1576 24.2853 87.492 24.2253 87.6892 24.1481C88.015 24.0194 88.2379 23.8306 88.3837 23.5818C88.5295 23.333 88.598 23.0156 88.598 22.6381V7.44402C88.598 7.10084 88.5466 6.79198 88.4351 6.52602C88.3323 6.26006 88.075 6.05416 87.6806 5.91689C87.4148 5.83109 87.0633 5.7453 86.6346 5.67666C86.2059 5.59945 85.8372 5.54797 85.5371 5.53081V4.48413H96.0575C97.0264 4.48413 97.9266 4.5785 98.7755 4.75867C99.6243 4.93884 100.387 5.23912 101.073 5.64235C101.734 6.037 102.265 6.55176 102.668 7.18664C103.062 7.83009 103.26 8.59365 103.26 9.48591C103.26 10.3009 103.131 11.013 102.857 11.6308C102.582 12.2485 102.197 12.789 101.665 13.2437C101.185 13.6726 100.602 14.033 99.933 14.3504C99.2556 14.6593 98.5097 14.9252 97.6951 15.1397C98.8183 16.5124 99.7529 17.6706 100.507 18.6058C101.245 19.5409 102.162 20.682 103.243 22.0204C103.714 22.6124 104.134 23.0499 104.52 23.333C104.906 23.6076 105.283 23.8478 105.66 24.0194C105.935 24.1481 106.286 24.251 106.698 24.3111C107.118 24.3883 107.47 24.4226 107.744 24.4312V25.4864H107.761ZM99.3071 9.8205C99.3071 8.54218 98.9041 7.53839 98.1153 6.79198C97.3264 6.04558 96.2032 5.67666 94.7542 5.67666H92.0191V14.6936H94.1197C95.5945 14.6936 96.8291 14.256 97.8152 13.3809C98.8098 12.5144 99.3071 11.3219 99.3071 9.8205Z" fill="white"/>
<path d="M107.83 25.6409H101.58L101.563 25.6151C100.165 23.599 98.9562 21.9346 97.8759 20.5276C96.7955 19.1206 95.5951 17.6363 94.3262 16.1263H92.1055V22.7239C92.1055 23.0671 92.1655 23.3588 92.277 23.599C92.3885 23.8478 92.6285 24.0365 92.9886 24.1652C93.1858 24.2339 93.5288 24.2939 93.9832 24.354C94.4805 24.414 94.8749 24.4483 95.2007 24.4569H95.2693V25.6495H85.4863V24.4655H85.5549C85.915 24.4398 86.2837 24.4054 86.6696 24.3625C87.1583 24.3111 87.4841 24.251 87.6641 24.1738C87.9642 24.0537 88.1872 23.8821 88.3329 23.6419C88.4701 23.4102 88.5387 23.11 88.5387 22.7325V7.52123C88.5387 7.17806 88.4873 6.88636 88.3844 6.62898C88.2901 6.38017 88.05 6.19143 87.6727 6.06274C87.3983 5.96836 87.0382 5.89115 86.6438 5.82251C86.2237 5.7453 85.855 5.7024 85.5549 5.67667L85.4863 5.66809V4.48413H96.0839C97.0442 4.48413 97.9359 4.5785 98.819 4.75867C99.6678 4.93884 100.448 5.23912 101.143 5.65093C101.811 6.04558 102.352 6.5775 102.754 7.22095C103.157 7.86441 103.355 8.65371 103.355 9.56312C103.355 10.3867 103.218 11.116 102.952 11.7423C102.669 12.3857 102.266 12.9348 101.743 13.3809C101.263 13.8099 100.671 14.1788 99.9937 14.4963C99.342 14.7965 98.6218 15.0539 97.8501 15.2684C98.939 16.5982 99.865 17.7393 100.585 18.6487C101.263 19.5066 102.086 20.5276 103.037 21.7115L103.329 22.0719C103.783 22.6467 104.212 23.0842 104.589 23.3673C104.975 23.6505 105.361 23.8821 105.713 24.0451C105.995 24.1738 106.338 24.2682 106.733 24.3368C107.144 24.4054 107.496 24.4483 107.77 24.4569H107.839V25.6409H107.83ZM101.657 25.495H107.693V24.5856C107.419 24.5685 107.084 24.5341 106.707 24.4655C106.296 24.4054 105.944 24.3025 105.653 24.1652C105.284 23.9936 104.898 23.762 104.504 23.4703C104.109 23.1786 103.68 22.7325 103.217 22.1491L102.926 21.7887C101.974 20.6048 101.151 19.5838 100.474 18.7259C99.7364 17.7907 98.7847 16.6325 97.6701 15.2598L97.6015 15.174L97.7044 15.1483C98.5103 14.9338 99.2563 14.6679 99.9251 14.359C100.594 14.0501 101.168 13.6898 101.64 13.2694C102.146 12.8319 102.54 12.2999 102.815 11.6822C103.072 11.0817 103.209 10.361 103.209 9.56312C103.209 8.67945 103.012 7.91588 102.626 7.29817C102.231 6.67187 101.708 6.15711 101.057 5.77962C100.379 5.37639 99.6078 5.08469 98.7761 4.90452C97.9101 4.72435 97.027 4.62998 96.0753 4.62998H85.6235V5.53939C85.915 5.56513 86.2666 5.60803 86.661 5.67667C87.064 5.7453 87.4326 5.83109 87.7156 5.91689C88.1357 6.06274 88.4015 6.27722 88.513 6.56892C88.6244 6.84346 88.6759 7.15232 88.6759 7.51265V22.7067C88.6759 23.11 88.5987 23.436 88.453 23.6934C88.2986 23.9593 88.05 24.1566 87.7156 24.2853C87.5184 24.3711 87.1754 24.4312 86.6781 24.4827C86.3094 24.5256 85.9665 24.5513 85.6235 24.5856V25.5036H95.1236V24.5856C94.8063 24.577 94.4291 24.5427 93.9661 24.4827C93.4945 24.4226 93.143 24.354 92.9372 24.2853C92.5342 24.1481 92.2684 23.9336 92.1398 23.6505C92.0198 23.3931 91.9597 23.0756 91.9597 22.7153V15.9805H94.3948L94.4119 16.0062C95.698 17.5334 96.8984 19.0176 97.9873 20.4418C99.0677 21.8316 100.268 23.4875 101.657 25.495ZM94.129 14.8394H91.9512V5.68524H94.7549C96.2211 5.68524 97.3614 6.07132 98.1588 6.81772C98.9648 7.57271 99.3763 8.61081 99.3763 9.89772C99.3763 11.4077 98.8704 12.626 97.8673 13.5096C96.8813 14.3933 95.6209 14.8394 94.129 14.8394ZM92.0969 14.7022H94.129C95.5866 14.7022 96.8127 14.2646 97.773 13.4067C98.7418 12.5487 99.2306 11.3734 99.2306 9.89772C99.2306 8.65371 98.8362 7.64992 98.0645 6.92068C97.2928 6.19143 96.1782 5.82251 94.7549 5.82251H92.0969V14.7022Z" fill="#9E1E28"/>
<path fill-rule="evenodd" clip-rule="evenodd" d="M120.254 25.7267H109.982V24.7829C110.274 24.7658 110.694 24.74 111.234 24.7057C111.783 24.6714 112.169 24.6199 112.392 24.5513C112.743 24.4398 113 24.2767 113.163 24.0794C113.326 23.8735 113.403 23.599 113.403 23.2472V7.83867C113.403 7.52123 113.343 6.62897 113.223 6.42307C113.112 6.20858 112.829 6.037 112.392 5.89115C112.066 5.77962 111.663 5.68524 111.183 5.59087C110.694 5.4965 110.3 5.44502 109.982 5.42786V4.48413H120.254V5.42786C119.92 5.43644 119.525 5.47076 119.062 5.53081C118.599 5.59087 118.196 5.65951 117.853 5.75388C117.45 5.86541 117.176 6.037 117.03 6.27722C116.893 6.51744 116.825 6.7834 116.825 7.0751V23.11C116.825 23.4017 116.902 23.659 117.056 23.8907C117.21 24.1137 117.476 24.2939 117.853 24.4312C118.076 24.4998 118.445 24.577 118.951 24.6628C119.465 24.7486 119.885 24.7915 120.246 24.8001V25.7267H120.254Z" fill="white"/>
<path d="M120.322 25.8725H109.913V24.7915H109.981C110.273 24.7744 110.693 24.7486 111.233 24.7143C111.773 24.68 112.159 24.6285 112.374 24.5599C112.699 24.4569 112.948 24.3025 113.111 24.1138C113.265 23.925 113.334 23.659 113.334 23.3245V7.9073C113.334 7.52981 113.265 6.69761 113.162 6.52602C113.06 6.33728 112.794 6.16569 112.365 6.02842C112.056 5.92547 111.662 5.83109 111.165 5.72814C110.685 5.63377 110.282 5.58229 109.973 5.56513H109.904V4.48413H120.313V5.56513H120.245C119.885 5.57371 119.482 5.60803 119.061 5.66809C118.564 5.73672 118.178 5.80536 117.861 5.88257C117.484 5.98552 117.218 6.14853 117.081 6.37159C116.952 6.59466 116.884 6.84346 116.884 7.13516V23.17C116.884 23.4446 116.961 23.6934 117.098 23.9078C117.244 24.1223 117.501 24.2939 117.861 24.4226C118.075 24.4912 118.435 24.5685 118.95 24.6543C119.499 24.74 119.902 24.7829 120.236 24.7915H120.305V25.8725H120.322ZM110.05 25.7267H120.176V24.9202C119.85 24.9116 119.456 24.8687 118.941 24.7829C118.418 24.6886 118.05 24.6199 117.827 24.5513C117.441 24.414 117.158 24.2253 116.995 23.9851C116.832 23.7448 116.755 23.4703 116.755 23.17V7.13516C116.755 6.8263 116.824 6.55176 116.969 6.30296C117.124 6.04558 117.415 5.85683 117.835 5.7453C118.161 5.65951 118.547 5.59087 119.053 5.52224C119.447 5.47076 119.833 5.43644 120.185 5.41928V4.61282H110.059V5.41928C110.367 5.43644 110.745 5.4965 111.199 5.58229C111.705 5.67667 112.108 5.77962 112.416 5.88257C112.879 6.037 113.171 6.21717 113.291 6.44023C113.428 6.68045 113.48 7.64992 113.48 7.89014V23.2987C113.48 23.6676 113.394 23.9593 113.222 24.1738C113.042 24.3883 112.777 24.5513 112.425 24.6714C112.202 24.74 111.816 24.7915 111.25 24.8258C110.745 24.8602 110.35 24.8859 110.059 24.9031V25.7267H110.05Z" fill="#9E1E28"/>
<path fill-rule="evenodd" clip-rule="evenodd" d="M30.6199 1.56205C30.6199 0.789903 29.9855 0.155029 29.1967 0.155029H1.93111C1.14229 0.155029 0.507812 0.781324 0.507812 1.56205V28.5185C0.507812 29.2992 1.14229 29.9255 1.93111 29.9255H29.1967C29.9855 29.9255 30.6199 29.2992 30.6199 28.5185V1.56205Z" fill="white"/>
<path d="M29.1967 30.0793H1.93114C1.06516 30.0793 0.353516 29.3758 0.353516 28.5179V1.56145C0.353516 0.703509 1.05659 0 1.93114 0H29.1967C30.0627 0 30.7743 0.69493 30.7743 1.56145V28.5179C30.7657 29.3758 30.0627 30.0793 29.1967 30.0793ZM1.93114 0.308857C1.22807 0.308857 0.662182 0.866518 0.662182 1.56145V28.5179C0.662182 29.2128 1.22807 29.7704 1.93114 29.7704H29.1967C29.8998 29.7704 30.4656 29.2042 30.4656 28.5179V1.56145C30.4656 0.875097 29.8998 0.308857 29.1967 0.308857H1.93114Z" fill="#C5C6C8"/>
<path fill-rule="evenodd" clip-rule="evenodd" d="M11.002 28.5006H27.1726C28.2616 28.5006 29.1618 27.6169 29.1618 26.5359L29.1704 10.5354L11.002 28.5006Z" fill="#00432C"/>
<path fill-rule="evenodd" clip-rule="evenodd" d="M29.1719 3.55159C29.1719 2.45343 28.2716 1.58691 27.1827 1.58691H21.2323L1.94922 20.6674V26.5272C1.94922 27.6082 2.82377 28.5004 3.9384 28.5004H9.79449L29.1719 9.34267V3.55159Z" fill="#B01E38"/>
<path fill-rule="evenodd" clip-rule="evenodd" d="M3.94621 1.57837C2.83159 1.57837 1.95703 2.44489 1.95703 3.54305V19.4492L20.0226 1.57837H3.94621Z" fill="#00432C"/>
<path fill-rule="evenodd" clip-rule="evenodd" d="M11.6973 28.2347C11.6973 28.2347 12.7262 27.8229 13.6864 27.6599C14.0466 27.5827 16.1472 27.0937 16.0357 24.9574C16.01 24.3997 15.1698 25.1032 15.1698 25.1032C15.1698 25.1032 13.5064 25.3349 12.8205 25.7639C12.4689 25.9612 11.6973 26.8105 11.6973 28.2347Z" fill="#FEDC00"/>
<path d="M11.543 28.4574V28.2343C11.5515 26.8445 12.2803 25.9007 12.7433 25.6348C13.395 25.2316 14.8354 24.9999 15.1098 24.9656C15.2813 24.8197 15.7271 24.5109 15.9929 24.6224C16.0786 24.6567 16.173 24.7425 16.1815 24.957C16.2844 27.0161 14.4839 27.6424 13.7122 27.8139C12.7691 27.9684 11.7573 28.3802 11.7487 28.3802L11.543 28.4574ZM15.8471 24.8884C15.7528 24.8884 15.4785 25.0428 15.2727 25.223L15.2384 25.2487L15.1955 25.2573C15.1784 25.2573 13.5579 25.4889 12.8977 25.8922C12.5719 26.0809 11.9288 26.8273 11.8516 28.0113C12.2032 27.8826 12.9405 27.6338 13.6522 27.5137C14.3467 27.3592 15.9672 26.793 15.8814 24.9656C15.8814 24.9141 15.8643 24.897 15.8643 24.897C15.8643 24.8884 15.8557 24.8884 15.8471 24.8884Z" fill="#9E1E28"/>
<path fill-rule="evenodd" clip-rule="evenodd" d="M18.8131 21.3882C18.8131 21.3882 19.1989 23.8076 17.2612 24.5797C16.4381 24.9143 15.1949 25.3004 15.0062 25.4891C15.0062 25.4891 14.569 23.8076 16.0008 22.7952C16.4638 22.4692 17.407 22.1517 18.0157 21.9287C18.5988 21.7228 18.8131 21.3882 18.8131 21.3882Z" fill="#FEDC00"/>
<path d="M14.9217 25.7813L14.8531 25.5239C14.8446 25.5067 14.3987 23.7308 15.9077 22.6669C16.3279 22.3667 17.0995 22.0921 17.7254 21.8691L17.9569 21.7918C18.48 21.6031 18.6857 21.3114 18.6857 21.3028L18.9001 20.9768L18.9601 21.3629C18.9601 21.3886 19.3459 23.911 17.3139 24.7174C17.0138 24.8375 16.6623 24.9662 16.3279 25.0863C15.8306 25.2665 15.2132 25.4896 15.1104 25.5925L14.9217 25.7813ZM18.6943 21.7318C18.5571 21.8433 18.3513 21.972 18.0684 22.075L17.8369 22.1608C17.2624 22.3667 16.4736 22.6498 16.0878 22.9243C15.0332 23.6707 15.0503 24.7861 15.1104 25.2408C15.3419 25.1292 15.7105 24.992 16.225 24.8032C16.5594 24.6831 16.9109 24.5544 17.2024 24.4343C18.6257 23.8766 18.7286 22.3924 18.6943 21.7318Z" fill="#9E1E28"/>
<path fill-rule="evenodd" clip-rule="evenodd" d="M19.8248 18.3938C19.8248 18.3938 21.0423 19.8609 19.6791 21.5339C19.3875 21.9199 17.93 22.8551 17.5698 23.2926C17.5698 23.2926 16.841 21.7312 17.7156 20.4614C17.9557 20.1011 18.7874 19.4319 19.1475 19.1659C19.5076 18.9 19.8248 18.3938 19.8248 18.3938Z" fill="#FEDC00"/>
<path d="M17.527 23.5761L17.4241 23.3616C17.3898 23.293 16.6696 21.7058 17.5871 20.376C17.8443 19.9899 18.7017 19.295 19.0532 19.0376C19.3876 18.7888 19.6877 18.3169 19.6877 18.3083L19.7992 18.1282L19.9363 18.2912C19.9535 18.3083 21.2139 19.8698 19.7906 21.6286C19.6363 21.843 19.1904 22.1776 18.7103 22.5294C18.2816 22.8554 17.8357 23.19 17.6728 23.3873L17.527 23.5761ZM19.8249 18.6687C19.6963 18.8488 19.4819 19.1148 19.2418 19.2864C18.8646 19.5609 18.0672 20.213 17.8443 20.5476C17.2098 21.4656 17.4756 22.5637 17.6213 23.0184C17.8443 22.8125 18.1872 22.5551 18.5388 22.2977C18.9761 21.9717 19.4219 21.6286 19.5591 21.4484C20.5623 20.2044 20.0735 19.0891 19.8249 18.6687Z" fill="#9E1E28"/>
<path fill-rule="evenodd" clip-rule="evenodd" d="M18.3417 15.2029C18.3417 15.2029 17.2099 15.8549 17.9644 17.7252C18.0416 17.9397 18.9162 19.5011 18.9419 19.9301C18.9419 19.9301 20.5195 18.9692 19.8765 16.996C19.7907 16.6356 19.0533 15.4946 18.3417 15.2029Z" fill="#FEDC00"/>
<path d="M18.813 20.196L18.7959 19.9387C18.7787 19.6727 18.3243 18.7719 18.0756 18.2914C17.9299 17.9997 17.8527 17.8453 17.827 17.7767C17.0382 15.812 18.2643 15.0741 18.2728 15.0656L18.3414 15.0312L18.41 15.057C19.1646 15.3658 19.9362 16.5584 20.0391 16.953C20.6993 19.0035 19.0531 20.0416 19.0359 20.0588L18.813 20.196ZM18.3586 15.3744C18.1442 15.5374 17.5098 16.1809 18.1099 17.6651C18.1271 17.7252 18.2385 17.9311 18.35 18.1542C18.6501 18.7461 18.933 19.3124 19.0445 19.6727C19.4218 19.3638 20.2106 18.5059 19.739 17.0474C19.6533 16.7385 19.0016 15.6919 18.3586 15.3744Z" fill="#9E1E28"/>
<path fill-rule="evenodd" clip-rule="evenodd" d="M15.4516 12.6458C15.4516 12.6458 15.0658 13.8211 15.9832 14.9364C16.369 15.3912 18.1182 15.9231 18.8727 16.4722C18.8727 16.4722 19.7987 13.4951 15.4516 12.6458Z" fill="#FEDC00"/>
<path d="M18.9582 16.7217L18.7868 16.593C18.4438 16.3442 17.8865 16.0954 17.3377 15.8552C16.669 15.5549 16.0945 15.3061 15.863 15.0315C14.8941 13.8647 15.28 12.6465 15.2971 12.595L15.34 12.4663L15.4686 12.492C17.0634 12.8009 18.1523 13.4272 18.701 14.3538C19.3355 15.4176 19.0268 16.4643 19.0097 16.5072L18.9582 16.7217ZM15.5629 12.8266C15.4943 13.1527 15.4086 14.0106 16.1031 14.8342C16.2831 15.0487 16.8833 15.3147 17.4664 15.572C17.9294 15.7779 18.4181 15.9924 18.7696 16.2155C18.8211 15.8809 18.8554 15.186 18.4438 14.5082C17.9551 13.6932 16.9862 13.1269 15.5629 12.8266Z" fill="#9E1E28"/>
<path fill-rule="evenodd" clip-rule="evenodd" d="M13.025 10.5354C13.025 10.5354 16.8062 10.8099 16.3003 14.2245C16.3003 14.2245 15.4429 13.6926 14.7484 13.4181C14.4483 13.2722 12.9393 12.8004 13.025 11.3933C13.0507 11.0158 13.025 10.5354 13.025 10.5354Z" fill="#FEDC00"/>
<path d="M16.4129 14.4823L16.2157 14.3622C16.2072 14.3536 15.3669 13.8389 14.6896 13.5643C14.6467 13.5472 14.6038 13.53 14.5524 13.5043C14.0722 13.2984 12.7861 12.7493 12.8719 11.3852C12.8976 11.0163 12.8719 10.5444 12.8719 10.5444L12.8633 10.3728L13.0348 10.39C13.1119 10.3985 14.8953 10.5358 15.8814 11.7627C16.4044 12.4233 16.6016 13.2555 16.4472 14.2593L16.4129 14.4823ZM13.1891 10.716C13.1977 10.8961 13.1977 11.1707 13.1805 11.4195C13.1119 12.5691 14.2008 13.0324 14.6724 13.2297C14.7324 13.2555 14.7839 13.2726 14.8182 13.2898C15.3155 13.4871 15.8814 13.8046 16.1814 13.9847C16.2586 13.1783 16.0786 12.4919 15.6499 11.96C14.9125 11.042 13.6435 10.776 13.1891 10.716Z" fill="#9E1E28"/>
<path fill-rule="evenodd" clip-rule="evenodd" d="M13.0951 7.28336C13.0951 7.28336 11.6804 8.33862 12.3835 10.1146C12.5121 10.4491 13.2409 11.4186 13.6267 11.5816C13.6267 11.5816 14.064 10.3548 14.3298 9.46252C14.4327 9.10218 14.6985 7.68659 13.8153 7.12893C13.3609 6.88013 13.0951 7.28336 13.0951 7.28336Z" fill="#FEDC00"/>
<path d="M13.7204 11.7969L13.5661 11.7283C13.1374 11.5395 12.3743 10.5272 12.2457 10.1668C11.5597 8.43381 12.803 7.32707 12.983 7.17264C13.1116 6.99247 13.4546 6.75225 13.9005 7.00105C14.9808 7.67882 14.5006 9.42902 14.4835 9.50623C14.2177 10.3899 13.7804 11.6253 13.7719 11.6339L13.7204 11.7969ZM13.5232 7.20696C13.3431 7.20696 13.2403 7.35281 13.2317 7.36996L13.1974 7.41286C13.1459 7.45576 11.8941 8.42523 12.5372 10.0639C12.6486 10.3556 13.1974 11.0848 13.5575 11.3594C13.6861 10.9905 13.9948 10.1068 14.2006 9.42902C14.2006 9.41186 14.6378 7.82467 13.7547 7.27559C13.6604 7.22411 13.5832 7.20696 13.5232 7.20696Z" fill="#9E1E28"/>
<path fill-rule="evenodd" clip-rule="evenodd" d="M12.8034 8.33895C12.8034 8.33895 11.7145 5.16458 15.6243 4.30664C15.6243 4.30664 16.4988 5.53349 15.067 6.80324C14.6726 7.16357 13.0521 7.97861 12.8034 8.33895Z" fill="#FEDC00"/>
<path d="M12.7598 8.6826L12.6569 8.3909C12.6397 8.33943 12.211 7.06968 12.8798 5.87715C13.36 5.02779 14.2688 4.44439 15.5892 4.15269L15.6921 4.12695L15.7521 4.21275C15.7607 4.22991 16.6867 5.56829 15.1691 6.91525C14.989 7.07826 14.5861 7.31848 14.1659 7.57586C13.6686 7.87614 13.0599 8.24506 12.9313 8.42522L12.7598 8.6826ZM15.5464 4.47871C14.3803 4.75325 13.5743 5.27659 13.1456 6.023C12.7083 6.79514 12.7941 7.63592 12.8798 8.04773C13.1113 7.85898 13.4971 7.61876 13.9944 7.31848C14.3889 7.07826 14.8004 6.83804 14.9547 6.69219C16.0694 5.69698 15.7007 4.76183 15.5464 4.47871Z" fill="#9E1E28"/>
<path fill-rule="evenodd" clip-rule="evenodd" d="M18.8991 1.89623C18.8991 1.89623 14.8436 1.80186 15.0151 5.39662C15.0151 5.39662 17.553 4.62447 18.2389 3.87807C18.5733 3.492 18.942 2.76275 18.8991 1.89623Z" fill="#FEDC00"/>
<path d="M14.87 5.60249L14.8614 5.40516C14.81 4.37564 15.0929 3.53486 15.7017 2.91714C16.8763 1.71603 18.814 1.75034 18.8998 1.75034H19.0455L19.0541 1.88762C19.097 2.77987 18.7283 3.55202 18.3596 3.98098C17.6566 4.75313 15.1701 5.50811 15.0672 5.54243L14.87 5.60249ZM18.7455 2.05062C18.2825 2.06778 16.8163 2.19647 15.916 3.12305C15.4101 3.64639 15.1529 4.33274 15.1529 5.1821C15.7531 4.98477 17.5794 4.35848 18.1195 3.7665C18.4282 3.42332 18.7455 2.78845 18.7455 2.05062Z" fill="#9E1E28"/>
</svg>
